<svg width="276" height="16" viewBox="0 0 276 16" fill="none" xmlns="http://www.w3.org/2000/svg">
    <path d="M274 10.2183C183.225 10.2183 232.238 5.96506 141.339 5.96506C131.365 5.96506 122.396 5.96506 137.729 5.96506C142.385 5.96506 160.864 6.57266 159.76 6.57266C146.339 6.57266 186.65 6.93905 199.974 8.53049C223.805 11.3769 187.927 11.7303 180.395 12.3111C155.511 14.2298 181.494 14.3279 192.006 13.5263C225.587 10.9655 163.229 10.8259 156.662 10.8259C139.886 10.8259 89.5591 10.8259 106.335 10.8259C118.699 10.8259 124.388 10.2556 110.012 11.2985C78.4547 13.5875 121.274 13.0059 131.498 12.3449C138.459 11.8948 180.581 10.8259 152.848 10.8259C125.125 10.8259 169.557 12.0411 176.819 12.0411C180.412 12.0411 211.45 11.4335 200.655 11.4335C151.463 11.4335 193.608 13.5671 165.106 13.2225C137.907 12.8937 110.724 12.6487 83.5208 12.6487C76.2724 12.6487 95.5923 10.7748 89.3094 10.3533C62.8452 8.578 35.9196 9.00307 9.39253 9.00307C-27.3373 9.00307 82.8505 8.39547 119.58 8.39547C178.586 8.39547 63.8909 10.0422 115.392 7.78786C143.04 6.57762 179.905 1.18189 207.193 8.39547C231.047 14.7014 157.82 9.00307 133.133 9.00307C130.11 9.00307 112.993 9.56529 124.858 7.78786C147.324 4.42248 170.105 3.98736 192.755 2.92705C199.418 2.61515 256.265 0.752815 223.265 3.39963C204.951 4.86851 149.962 5.63386 168.273 7.14651C186.133 8.62194 205.32 8.39547 223.265 8.39547C239.442 8.39547 256.323 12.6487 272.774 12.6487" stroke="#d56ba0" stroke-width="4" stroke-linecap="round"/>
</svg>
