<svg width="1025" height="23" viewBox="0 0 1025 23" fill="none" xmlns="http://www.w3.org/2000/svg">
    <path d="M2 9.51673H172.299M172.299 9.51673H244.656C286.051 9.51673 407.817 4.99606 368.834 9.9403C349.387 12.4068 146.486 20.6147 148.575 13.9407C148.759 13.3501 184.671 11.6426 184.224 11.5405C180.644 10.7231 176.637 10.0576 172.299 9.51673ZM172.299 9.51673C168.007 8.98166 163.39 8.56851 158.541 8.25089M158.541 8.25089C141.668 7.14577 121.975 7.19727 103.332 7.29477M158.541 8.25089C140.61 7.98004 120.863 7.6188 103.332 7.29477M158.541 8.25089C174.886 8.49779 189.723 8.66958 199.995 8.66958M103.332 7.29477C88.1239 7.37431 73.6138 7.48447 61.9021 7.02234C37.5354 6.06087 65.189 6.58976 103.332 7.29477ZM368.644 13.1662H448.799C392.304 13.1662 336.598 12.354 280.262 11.4995M709.805 14.8328C692.547 14.8328 667.95 15.0665 640.737 15.3816M640.737 15.3816C541.111 16.5351 406.43 18.78 468.494 14.6477C469.587 14.5749 470.652 14.5028 471.69 14.4316M640.737 15.3816C596.771 13.0094 531.161 13.4615 471.69 14.4316M640.737 15.3816C648.505 15.8007 655.597 16.308 661.86 16.9162C753.463 25.8107 471.719 17.7919 376.711 18.9995C327.992 19.6188 279.334 21.4995 230.626 21.4995C193.366 21.4995 305.484 21.1442 342.143 18.8143C349.995 18.3153 352.113 17.5417 350.089 16.6139M471.69 14.4316C518.037 11.2483 508.574 9.62871 486.652 8.82297M471.69 14.4316C420.924 15.2597 374.631 16.4652 350.089 16.6139M486.652 8.82297C476.686 8.45669 464.146 8.25858 453.104 8.1582M486.652 8.82297C510.954 8.81139 532.206 8.99951 545.841 8.99951C569.99 8.99951 692.819 5.00766 720.462 9.81941M486.652 8.82297C442.406 8.84405 388.05 9.52707 351.149 13.2125C346.567 13.6701 342.853 14.073 339.945 14.4261M453.104 8.1582C429.985 7.94802 413.432 8.16618 440.813 8.16618C444.716 8.16618 448.818 8.16346 453.104 8.1582ZM453.104 8.1582C616.727 7.95714 1048.39 4.03936 899.463 5.66618C872.955 5.95574 846.502 7.4585 819.899 8.57673M819.899 8.57673C816.525 8.71858 813.148 8.85424 809.768 8.98044M819.899 8.57673C878.71 8.01717 936.52 7.70931 975.515 7.53993M819.899 8.57673C785.945 8.8998 751.656 9.30676 720.462 9.81941M809.768 8.98044C796.366 9.48093 782.92 9.83284 769.404 9.83284C743.261 9.83284 770.183 9.40337 809.768 8.98044ZM809.768 8.98044C848.165 8.57023 898.475 8.16618 923.832 8.16618C940.687 8.16618 958.47 7.78674 975.515 7.53993M975.515 7.53993C983.729 7.42098 991.773 7.33284 999.457 7.33284C1043.4 7.33284 1024 7.32933 975.515 7.53993ZM720.462 9.81941C686.251 10.3816 655.762 11.071 633.518 11.9162C550.291 15.0784 662.534 13.5984 701.487 12.4335M720.462 9.81941C722.911 10.2457 724.613 10.741 725.433 11.3143C729.68 14.2837 715.565 13.3684 701.487 12.4335M701.487 12.4335C718.055 11.938 721.364 11.4995 690.733 11.4995H682.786C687.506 11.4995 694.492 11.9689 701.487 12.4335ZM339.945 14.4261C325.199 16.2168 331.204 16.7283 350.089 16.6139M339.945 14.4261C345.062 15.205 348.639 15.949 350.089 16.6139M339.945 14.4261C314.092 10.491 248.923 5.66618 220.031 5.66618C188.303 5.66618 157.544 3.16618 125.864 3.16618C54.3273 3.16618 268.885 1.49951 340.422 1.49951C489.268 1.49951 343.896 3.16618 287.842 3.16618" stroke="#2474F5" stroke-width="3" stroke-linecap="round"/>
</svg>
