<svg width="244" height="22" viewBox="0 0 244 22" fill="none" xmlns="http://www.w3.org/2000/svg">
    <path d="M2 9.21501H41.9918M41.9918 9.21501H58.9839C68.7047 9.21501 97.2995 5.14641 88.145 9.59623C83.5782 11.8161 35.9303 19.2032 36.4206 13.1966C36.464 12.6651 44.8974 11.1283 44.7924 11.0364C43.9517 10.3008 43.0107 9.70183 41.9918 9.21501ZM41.9918 9.21501C40.984 8.73345 39.8998 8.36161 38.761 8.07575M38.761 8.07575C34.7987 7.08114 30.1742 7.12749 25.7962 7.21525M38.761 8.07575C34.5503 7.83199 29.9131 7.50687 25.7962 7.21525M38.761 8.07575C42.5996 8.29797 46.0836 8.45257 48.4959 8.45257M25.7962 7.21525C22.2248 7.28683 18.8173 7.38598 16.067 6.97006C10.3449 6.10473 16.8389 6.58073 25.7962 7.21525ZM88.1004 12.4995H106.923C93.6564 12.4995 80.575 11.7686 67.3453 10.9995M168.216 13.9995C164.164 13.9995 158.387 14.2098 151.997 14.4934M151.997 14.4934C128.601 15.5315 96.9738 17.5519 111.548 13.8328C111.805 13.7673 112.055 13.7025 112.299 13.6384M151.997 14.4934C141.672 12.3584 126.265 12.7653 112.299 13.6384M151.997 14.4934C153.821 14.8706 155.487 15.3271 156.957 15.8745C178.469 23.8796 112.306 16.6626 89.9947 17.7495C78.5539 18.3069 67.1273 19.9995 55.6892 19.9995C46.9392 19.9995 73.2683 19.6798 81.8771 17.5828C83.7209 17.1337 84.2182 16.4375 83.743 15.6025M112.299 13.6384C123.183 10.7734 120.961 9.31579 115.813 8.59062M112.299 13.6384C100.378 14.3837 89.5063 15.4687 83.743 15.6025M115.813 8.59062C113.472 8.26097 110.527 8.08268 107.934 7.99233M115.813 8.59062C121.52 8.5802 126.51 8.74951 129.712 8.74951C135.383 8.74951 164.228 5.15685 170.719 9.48742M115.813 8.59062C105.422 8.60959 92.6576 9.22432 83.9921 12.5412C82.916 12.953 82.0437 13.3156 81.3608 13.6334M107.934 7.99233C102.505 7.80317 98.618 7.99951 105.048 7.99951C105.965 7.99951 106.928 7.99707 107.934 7.99233ZM107.934 7.99233C146.358 7.81138 247.727 4.28537 212.755 5.74951C206.53 6.01011 200.317 7.3626 194.07 8.36901M194.07 8.36901C193.278 8.49667 192.485 8.61876 191.691 8.73235M194.07 8.36901C207.881 7.86541 221.457 7.58833 230.614 7.43589M194.07 8.36901C186.097 8.65977 178.045 9.02603 170.719 9.48742M191.691 8.73235C188.544 9.18279 185.386 9.49951 182.212 9.49951C176.073 9.49951 182.395 9.11298 191.691 8.73235ZM191.691 8.73235C200.708 8.36316 212.522 7.99951 218.477 7.99951C222.435 7.99951 226.611 7.65801 230.614 7.43589M230.614 7.43589C232.543 7.32884 234.432 7.24951 236.237 7.24951C246.555 7.24951 242 7.24634 230.614 7.43589ZM170.719 9.48742C162.685 9.99342 155.525 10.6138 150.302 11.3745C130.757 14.2205 157.116 12.8885 166.263 11.8401M170.719 9.48742C171.294 9.87105 171.694 10.3169 171.886 10.8328C172.884 13.5053 169.569 12.6815 166.263 11.8401M166.263 11.8401C170.154 11.3941 170.931 10.9995 163.738 10.9995H161.872C162.98 10.9995 164.62 11.422 166.263 11.8401ZM81.3608 13.6334C77.8979 15.2451 79.3082 15.7054 83.743 15.6025M81.3608 13.6334C82.5625 14.3344 83.4024 15.0041 83.743 15.6025M81.3608 13.6334C75.2898 10.0918 59.9859 5.74951 53.201 5.74951C45.7502 5.74951 38.527 3.49951 31.0875 3.49951C14.2882 3.49951 64.6735 1.99951 81.4728 1.99951C116.427 1.99951 82.2886 3.49951 69.1253 3.49951" stroke="#d56ba0" stroke-width="4" stroke-linecap="round"/>
</svg>
