<svg width="130" height="22" viewBox="0 0 130 22" fill="none" xmlns="http://www.w3.org/2000/svg">
    <path d="M2 14.3274C44.0503 14.3274 21.3456 7.94759 63.4534 7.94759C68.0737 7.94759 72.2283 7.94759 65.1254 7.94759C62.9688 7.94759 54.4084 8.85899 54.9199 8.85899C61.1369 8.85899 42.4638 9.40857 36.2915 11.7957C25.252 16.0653 41.872 16.5955 45.3612 17.4667C56.8884 20.3447 44.852 20.4919 39.9825 19.2895C24.4264 15.4483 53.3132 15.2388 56.3553 15.2388C64.1264 15.2388 87.4395 15.2388 79.6685 15.2388C73.9409 15.2388 71.3053 14.3835 77.965 15.9477C92.5835 19.3813 72.748 18.5088 68.0119 17.5173C64.7872 16.8422 45.2748 15.2388 58.122 15.2388C70.9643 15.2388 50.3817 17.0616 47.0174 17.0616C45.3533 17.0616 30.9755 16.1502 35.976 16.1502C58.7632 16.1502 39.2406 19.3506 52.4435 18.8338C65.043 18.3406 77.6352 17.973 90.2367 17.973C93.5944 17.973 84.6447 15.1622 87.5552 14.5299C99.8143 11.867 112.287 12.5046 124.576 12.5046C141.59 12.5046 90.5472 11.5932 73.5326 11.5932C46.1993 11.5932 99.33 14.0634 75.4728 10.6818C62.6652 8.86643 45.588 0.772841 32.9475 11.5932C21.8975 21.0521 55.8186 12.5046 67.2548 12.5046C68.6549 12.5046 76.5841 13.3479 71.0877 10.6818C60.6809 5.63372 50.1277 4.98104 39.6355 3.39058C36.549 2.92272 10.2154 0.129222 25.5025 4.09944C33.9861 6.30276 59.4586 7.45079 50.9766 9.71976C42.7032 11.9329 33.8149 11.5932 25.5025 11.5932C18.0085 11.5932 10.1887 17.973 2.56784 17.973" stroke="#d56ba0" stroke-width="4" stroke-linecap="round"/>
</svg>

