<svg width="704" height="28" viewBox="0 0 704 28" fill="none" xmlns="http://www.w3.org/2000/svg">
    <path d="M2 18.4365C235.613 18.4365 109.475 9.93012 343.408 9.93012C369.076 9.93012 392.157 9.93012 352.697 9.93012C340.715 9.93012 293.158 11.1453 296 11.1453C330.538 11.1453 226.799 11.8781 192.508 15.061C131.178 20.7537 223.511 21.4607 242.896 22.6222C306.936 26.4596 240.067 26.6559 213.014 25.0527C126.591 19.931 287.073 19.6517 303.974 19.6517C347.147 19.6517 476.664 19.6517 433.492 19.6517C401.672 19.6517 387.03 18.5113 424.028 20.5969C505.242 25.1751 395.044 24.0118 368.733 22.6898C350.818 21.7896 242.416 19.6517 313.789 19.6517C385.135 19.6517 270.787 22.0822 252.097 22.0822C242.852 22.0822 162.975 20.8669 190.756 20.8669C317.351 20.8669 208.892 25.1342 282.242 24.445C352.239 23.7874 422.196 23.2974 492.204 23.2974C510.858 23.2974 461.137 19.5495 477.307 18.7066C545.413 15.156 614.707 16.0061 682.975 16.0061C777.5 16.0061 493.929 14.7909 399.403 14.7909C247.552 14.7909 542.722 18.0845 410.182 13.5757C339.029 11.1552 244.155 0.363788 173.931 14.7909C112.542 27.4028 300.992 16.0061 364.527 16.0061C372.305 16.0061 416.356 17.1306 385.821 13.5757C328.005 6.84496 269.376 5.97472 211.086 3.8541C193.939 3.23029 47.6414 -0.49437 132.569 4.79926C179.701 7.73702 321.214 9.26772 274.092 12.293C228.129 15.2439 178.75 14.7909 132.569 14.7909C90.936 14.7909 47.493 23.2974 5.15469 23.2974" stroke="#d56ba0" stroke-width="4" stroke-linecap="round"/>
</svg>
