<svg width="252" height="15" viewBox="0 0 252 15" fill="none" xmlns="http://www.w3.org/2000/svg">
    <path d="M250 2.99992C169.261 2.99992 88.5726 6.49962 8.12958 6.49962C-22.29 6.49962 68.8338 10.764 99.2516 10.4993C102.019 10.4752 112.839 9.77149 104.038 9.4716C98.7651 9.29192 83.37 10.5532 88.2212 8.88831C95.971 6.22874 156.422 -1.94188 120.41 6.38852C96.5286 11.9131 152.039 5.81811 129.568 10.777C101.046 17.0713 138.936 7.9995 147.848 7.9995C159.62 7.9995 176.321 6.70547 187.772 3.99983C198.927 1.36397 206.2 3.49987 207.578 3.49987C212.091 3.49987 208.343 5.24228 206.295 6.11077C204.821 6.73565 214.052 4.64336 211.012 5.74969C200.975 9.40312 254.782 2 243.756 2" stroke="#2474F5" stroke-width="4" stroke-linecap="round"/>
</svg>
