<svg width="20" height="24" viewBox="0 0 20 24" fill="none" xmlns="http://www.w3.org/2000/svg">
    <mask id="mask0_8062_5870" style="mask-type:alpha" maskUnits="userSpaceOnUse" x="0" y="2" width="20" height="20">
        <path fill-rule="evenodd" clip-rule="evenodd" d="M1.25 9.91659C1.25 9.45635 1.6231 9.08325 2.08333 9.08325L17.9167 9.08325C18.3769 9.08325 18.75 9.45635 18.75 9.91659V18.6666C18.75 19.5871 18.0038 20.3333 17.0833 20.3333H2.91667C1.9962 20.3333 1.25 19.5871 1.25 18.6666L1.25 9.91659ZM2.91667 10.7499L2.91667 18.6666H17.0833V10.7499L2.91667 10.7499Z" fill="#333333"/>
        <path fill-rule="evenodd" clip-rule="evenodd" d="M1.25 5.74992C1.25 4.82944 1.99619 4.08325 2.91667 4.08325L17.0833 4.08325C18.0038 4.08325 18.75 4.82945 18.75 5.74992V9.91659C18.75 10.3768 18.3769 10.7499 17.9167 10.7499L2.08333 10.7499C1.6231 10.7499 1.25 10.3768 1.25 9.91659L1.25 5.74992ZM17.0833 5.74992L2.91667 5.74992L2.91667 9.08325L17.0833 9.08325V5.74992Z" fill="#333333"/>
        <path fill-rule="evenodd" clip-rule="evenodd" d="M6.66659 2.83325C7.12682 2.83325 7.49992 3.20635 7.49992 3.66659V6.99992C7.49992 7.46016 7.12682 7.83325 6.66659 7.83325C6.20635 7.83325 5.83325 7.46016 5.83325 6.99992L5.83325 3.66659C5.83325 3.20635 6.20635 2.83325 6.66659 2.83325Z" fill="#333333"/>
        <path fill-rule="evenodd" clip-rule="evenodd" d="M13.3333 2.83325C13.7936 2.83325 14.1667 3.20635 14.1667 3.66659V6.99992C14.1667 7.46016 13.7936 7.83325 13.3333 7.83325C12.8731 7.83325 12.5 7.46016 12.5 6.99992V3.66659C12.5 3.20635 12.8731 2.83325 13.3333 2.83325Z" fill="#333333"/>
        <path fill-rule="evenodd" clip-rule="evenodd" d="M10.8333 16.1666C10.8333 15.7063 11.2063 15.3333 11.6666 15.3333H14.1666C14.6268 15.3333 14.9999 15.7063 14.9999 16.1666C14.9999 16.6268 14.6268 16.9999 14.1666 16.9999H11.6666C11.2063 16.9999 10.8333 16.6268 10.8333 16.1666Z" fill="#333333"/>
        <path fill-rule="evenodd" clip-rule="evenodd" d="M5 16.1666C5 15.7063 5.3731 15.3333 5.83333 15.3333H8.33333C8.79357 15.3333 9.16667 15.7063 9.16667 16.1666C9.16667 16.6268 8.79357 16.9999 8.33333 16.9999H5.83333C5.3731 16.9999 5 16.6268 5 16.1666Z" fill="#333333"/>
        <path fill-rule="evenodd" clip-rule="evenodd" d="M10.8333 12.8333C10.8333 12.3731 11.2063 12 11.6666 12H14.1666C14.6268 12 14.9999 12.3731 14.9999 12.8333C14.9999 13.2936 14.6268 13.6667 14.1666 13.6667H11.6666C11.2063 13.6667 10.8333 13.2936 10.8333 12.8333Z" fill="#333333"/>
        <path fill-rule="evenodd" clip-rule="evenodd" d="M5 12.8333C5 12.3731 5.3731 12 5.83333 12H8.33333C8.79357 12 9.16667 12.3731 9.16667 12.8333C9.16667 13.2936 8.79357 13.6667 8.33333 13.6667H5.83333C5.3731 13.6667 5 13.2936 5 12.8333Z" fill="#333333"/>
    </mask>
    <g mask="url(#mask0_8062_5870)">
        <rect y="2" width="20" height="20" fill="#75787B"/>
    </g>
</svg>
