<svg width="12" height="54" viewBox="0 0 12 54" fill="none" xmlns="http://www.w3.org/2000/svg">
    <path d="M5.8149 35.8132C8.47409 35.8132 10.6298 33.6574 10.6298 30.9983V5.8149C10.6298 3.1557 8.47409 1 5.8149 1C3.1557 1 1 3.1557 1 5.81489V30.9983C1 33.6574 3.1557 35.8132 5.8149 35.8132Z" fill="#2474F5"/>
    <path d="M10.6298 48.2396C10.6298 45.6106 8.49851 43.4793 5.86944 43.4793H5.76035C3.13128 43.4793 1 45.6106 1 48.2396C1 50.8687 3.13128 53 5.76035 53H5.86944C8.49851 53 10.6298 50.8687 10.6298 48.2396Z" fill="#2474F5"/>
    <path fill-rule="evenodd" clip-rule="evenodd" d="M11.6298 5.8149V30.9983C11.6298 34.2097 9.02637 36.8132 5.8149 36.8132C2.60342 36.8132 0 34.2097 0 30.9983V5.81489C0 2.60342 2.60342 0 5.8149 0C9.02637 0 11.6298 2.60342 11.6298 5.8149ZM5.86944 54H5.76035C2.579 54 0 51.421 0 48.2396C0 45.0583 2.579 42.4793 5.76035 42.4793H5.86944C9.05079 42.4793 11.6298 45.0583 11.6298 48.2396C11.6298 51.421 9.05079 54 5.86944 54ZM10.6298 30.9983C10.6298 33.6574 8.47409 35.8132 5.8149 35.8132C3.1557 35.8132 1 33.6574 1 30.9983V5.81489C1 3.1557 3.1557 1 5.8149 1C8.47409 1 10.6298 3.1557 10.6298 5.8149V30.9983ZM5.86944 43.4793C8.49851 43.4793 10.6298 45.6106 10.6298 48.2396C10.6298 50.8687 8.49851 53 5.86944 53H5.76035C3.13128 53 1 50.8687 1 48.2396C1 45.6106 3.13128 43.4793 5.76035 43.4793H5.86944Z" fill="#2474F5"/>
</svg>
