<svg width="48" height="33" viewBox="0 0 48 33" fill="none" xmlns="http://www.w3.org/2000/svg">
    <path d="M10.5885 12.2653C16.3525 12.2653 21.0443 16.8622 21.0443 22.5184C21.0443 28.1746 16.3565 32.7715 10.5885 32.7715C4.82455 32.7715 0.132835 28.1746 0.132835 22.5184L0.0830078 21.0819C0.0830078 10.702 7.92448 2.16152 18.0802 0.773128C19.6791 0.554547 20.9944 1.88379 20.9944 3.49753L-nan -nanL20.9944 3.49753C20.9944 5.11127 19.6743 6.38921 18.0899 6.69529C15.2086 7.25188 12.5756 8.63739 10.4411 10.7291C9.90093 11.2587 9.41661 11.7825 8.92632 12.406C9.46644 12.3102 10.0504 12.2653 10.5885 12.2653ZM37.4613 12.2653C43.2253 12.2653 47.917 16.8622 47.917 22.5184C47.917 28.1746 43.2293 32.7715 37.4613 32.7715C31.6973 32.7715 27.0056 28.1746 27.0056 22.5184L26.9557 21.0819C26.9557 10.702 34.7972 2.16152 44.953 0.773127C46.5518 0.554547 47.8672 1.88379 47.8672 3.49753L-nan -nanL47.8672 3.49753C47.8672 5.11127 46.547 6.39024 44.9631 6.69926C42.097 7.25846 39.4432 8.64234 37.3138 10.7291C36.7737 11.2587 36.2893 11.7825 35.8489 12.406C36.389 12.3102 36.9231 12.2633 37.4633 12.2633L37.4613 12.2614V12.2653Z" fill="#2474F5"/>
</svg>

